<?xml version="1.0" standalone="no"?>
<!DOCTYPE svg PUBLIC "-//W3C//DTD SVG 20010904//EN"
 "http://www.w3.org/TR/2001/REC-SVG-20010904/DTD/svg10.dtd">
<svg version="1.0" xmlns="http://www.w3.org/2000/svg"
 width="400.000000pt" height="328.000000pt" viewBox="0 0 400.000000 328.000000"
 preserveAspectRatio="xMidYMid meet">
<metadata>
Created by potrace 1.16, written by Peter Selinger 2001-2019
</metadata>
<g transform="translate(0.000000,328.000000) scale(0.100000,-0.100000)"
fill="#000000" stroke="none">
<path d="M0 1640 l0 -1640 2000 0 2000 0 0 1640 0 1640 -2000 0 -2000 0 0
-1640z m1511 841 c31 -31 36 -59 17 -94 -26 -50 -86 -62 -132 -26 -20 16 -26
29 -26 60 0 83 83 118 141 60z m0 -2057 c43 -39 29 -117 -24 -142 -57 -27
-117 12 -117 76 0 40 12 62 45 81 25 14 73 6 96 -15z"/>
</g>
</svg>
