<?xml version="1.0" encoding="UTF-8" standalone="no"?>
<!-- Created with Inkscape (http://www.inkscape.org/) -->

<svg
   xmlns:dc="http://purl.org/dc/elements/1.1/"
   xmlns:cc="http://creativecommons.org/ns#"
   xmlns:rdf="http://www.w3.org/1999/02/22-rdf-syntax-ns#"
   xmlns:svg="http://www.w3.org/2000/svg"
   xmlns="http://www.w3.org/2000/svg"
   xmlns:sodipodi="http://sodipodi.sourceforge.net/DTD/sodipodi-0.dtd"
   xmlns:inkscape="http://www.inkscape.org/namespaces/inkscape"
   width="10cm"
   height="7cm"
   viewBox="0 0 100 70.000001"
   version="1.1"
   id="svg8"
   inkscape:version="0.92.4 5da689c313, 2019-01-14"
   sodipodi:docname="drawing.svg">
  <defs
     id="defs2" />
  <sodipodi:namedview
     id="base"
     pagecolor="#ffffff"
     bordercolor="#666666"
     borderopacity="1.0"
     inkscape:pageopacity="0.0"
     inkscape:pageshadow="2"
     inkscape:zoom="3.959798"
     inkscape:cx="115.5962"
     inkscape:cy="148.38892"
     inkscape:document-units="mm"
     inkscape:current-layer="layer1"
     showgrid="false"
     inkscape:window-width="3840"
     inkscape:window-height="2050"
     inkscape:window-x="0"
     inkscape:window-y="54"
     inkscape:window-maximized="1"
     units="cm" />
  <metadata
     id="metadata5">
    <rdf:RDF>
      <cc:Work
         rdf:about="">
        <dc:format>image/svg+xml</dc:format>
        <dc:type
           rdf:resource="http://purl.org/dc/dcmitype/StillImage" />
        <dc:title></dc:title>
      </cc:Work>
    </rdf:RDF>
  </metadata>
  <g
     inkscape:label="Layer 1"
     inkscape:groupmode="layer"
     id="layer1"
     transform="translate(0,-227)">
    <path
       style="fill:none;stroke:#000000;stroke-width:0.4161531px;stroke-linecap:butt;stroke-linejoin:miter;stroke-opacity:1"
       d="M 0.42522322,276.04239 H 88.664953"
       id="path4714"
       inkscape:connector-curvature="0" />
    <path
       style="fill:none;stroke:#c635b5;stroke-width:0.78643113;stroke-linecap:butt;stroke-linejoin:miter;stroke-miterlimit:4;stroke-dasharray:none;stroke-opacity:1"
       d="m 12.73988,229.76474 c 1.598984,39.59685 69.696849,44.03022 69.696849,44.03022"
       id="path16"
       inkscape:connector-curvature="0" />
    <path
       style="fill:none;stroke:#000000;stroke-width:0.4161531px;stroke-linecap:butt;stroke-linejoin:miter;stroke-opacity:1"
       d="M 10.064121,228.20835 V 284.1093"
       id="path4716"
       inkscape:connector-curvature="0" />
    <g
       id="g4891"
       transform="matrix(1.8546427,0,0,1.3338934,-0.36651846,-79.16268)">
      <path
         inkscape:connector-curvature="0"
         id="path4718"
         d="m 5.6696427,234.72842 1.6062602,0 -0.027149,31.48839"
         style="fill:none;stroke:#664ae8;stroke-width:0.26458332px;stroke-linecap:butt;stroke-linejoin:miter;stroke-opacity:0.65882353"
         sodipodi:nodetypes="ccc" />
      <path
         inkscape:connector-curvature="0"
         id="path4722"
         d="m 5.7168898,242.05171 3.3199709,0 0.00793,24.28543"
         style="fill:none;stroke:#664ae8;stroke-width:0.26458332px;stroke-linecap:butt;stroke-linejoin:miter;stroke-opacity:0.65957444"
         sodipodi:nodetypes="ccc" />
    </g>
    <text
       xml:space="preserve"
       style="font-style:normal;font-weight:normal;font-size:10.58333302px;line-height:1.25;font-family:sans-serif;letter-spacing:0px;word-spacing:0px;fill:#000000;fill-opacity:1;stroke:none;stroke-width:0.26458332"
       x="1.0022607"
       y="237.18173"
       id="text4751"><tspan
         sodipodi:role="line"
         id="tspan4749"
         x="1.0022607"
         y="246.5455"
         style="stroke-width:0.26458332" /></text>
    <path
       style="fill:#800000;stroke:#b5aceb;stroke-width:0;stroke-miterlimit:4;stroke-dasharray:none;stroke-dashoffset:0;stroke-opacity:0.99290783"
       id="path4822"
       d="m 16.154392,279.56742 c -0.101855,-0.0328 -0.199537,-0.0654 -0.303729,-0.093 -0.03797,-0.006 -0.06752,-0.0197 -0.106069,-0.0262 -0.02337,-0.004 -0.04577,-0.01 -0.06998,-0.0164 -0.0032,-1.7e-4 -0.0067,2e-4 -0.0096,-5.3e-4 -0.02045,-0.006 -0.03547,-0.01 -0.05779,-0.0164 -0.03172,-5.9e-4 -0.06059,-0.01 -0.09159,-0.0164 -0.02962,-0.004 -0.05996,-9e-4 -0.08905,-0.006 -0.0313,-0.006 -0.06468,-0.01 -0.09789,-0.01 -0.03379,3e-4 -0.05487,-1.6e-4 -0.08621,-0.01 -0.02421,-0.006 -0.0499,-0.006 -0.07569,-0.01 -0.02587,-4e-4 -0.05141,-2.6e-4 -0.07702,-1.6e-4 -0.02587,2e-5 -0.05212,2e-5 -0.07828,8e-5 -0.02587,0 -0.0522,-6e-5 -0.07828,0 -0.02337,-6e-5 -0.04673,8e-5 -0.07006,0 -0.02462,0 -0.04927,0 -0.07403,0 -0.02587,0 -0.05203,0 -0.07807,0 -0.02629,-0.003 -0.04293,0.01 -0.06668,0.01 -0.01126,0.003 -0.0267,0 -0.03798,0.003 -0.0046,8.9e-4 -0.02546,0.01 -0.03421,0.01 -0.01919,0.006 -0.05558,-1.7e-4 -0.06617,0.01 -0.01628,0.01 -0.04005,0.006 -0.05645,0.0164 -0.01794,0.01 -0.04919,0.006 -0.06484,0.0164 -0.0096,0.006 -0.02587,0.004 -0.03672,0.01 -0.0039,8.9e-4 -0.0063,0.004 -0.0096,0.006 -0.008,0.003 -0.01711,0.006 -0.02587,0.006 -0.005,5.9e-4 -0.01043,5.9e-4 -0.0146,0.003 -0.0042,8.9e-4 -0.0067,0.004 -0.01043,0.006 -0.01669,0.006 -0.03589,0.01 -0.05466,0.01 -0.005,0.003 -0.0096,0.006 -0.01502,0.01 -0.01126,0.004 -0.01627,0.006 -0.02962,0.006 -0.0042,6e-4 -0.01669,0.003 -0.01294,9e-4 0.103608,-0.0363 0.415014,-0.14014 0.312659,-0.10347 -0.115668,0.0415 -0.234964,0.0782 -0.352466,0.11787 0.540253,-0.20922 0.368155,-0.12573 0.249734,-0.0796 -0.02379,0.006 -0.04398,0.0164 -0.06572,0.0262 -0.01419,0.006 -0.03505,0.0164 -0.04406,0.0197 -0.01628,0.01 -0.0267,0.0164 -0.04231,0.0262 -0.01794,0.01 -0.03505,0.0164 -0.05228,0.0262 -0.0021,9e-4 -0.0035,0.004 -0.0063,0.006 -0.005,0.003 -0.01127,0.003 -0.01627,0.006 -0.0088,0.004 -0.0096,0.01 -0.02004,0.01 -0.01544,0.006 -0.02504,0.0164 -0.04005,0.0262 -0.0088,0.01 -0.02462,0.0197 -0.03338,0.0328 -0.01168,0.01 -0.02587,0.0197 -0.03922,0.0328 -0.01001,0.01 -0.02504,0.0197 -0.0363,0.0363 -0.008,0.01 -0.01753,0.0197 -0.02796,0.0364 -0.0058,0.0164 -0.01336,0.0262 -0.02295,0.0415 -0.01001,0.0164 -0.0092,0.0328 -0.01628,0.0468 -0.01043,0.01 -0.01711,0.0262 -0.02003,0.0363 -0.0028,0.0164 -0.0026,0.0328 -0.0026,0.0468 0.0032,0.0164 -0.0067,0.0328 -0.01628,0.0415 -0.0071,0.0164 -0.0083,0.0262 -0.0092,0.0415 -3.92e-4,0.0164 -4.04e-4,0.0262 -3e-4,0.0415 4.6e-5,0.0164 -8e-6,0.0328 7.6e-5,0.0468 1.2e-5,0.0164 -6.7e-5,0.0328 1.2e-5,0.0468 -0.0021,0.0164 3.91e-4,0.0262 0.0088,0.0415 0.0092,0.0164 0.01336,0.0328 0.01586,0.0468 0.0029,0.0164 -2.71e-4,0.0328 0.0026,0.0468 0.0088,0.0164 0.01628,0.0328 0.02087,0.0468 0.0071,0.0164 0.01711,0.0262 0.02379,0.0415 0.01168,0.01 0.01836,0.0262 0.02712,0.0415 0.0092,0.0164 0.02211,0.0262 0.03547,0.0415 0.0067,0.01 0.02211,0.0197 0.03213,0.0328 0.01502,0.006 0.02712,0.0164 0.03839,0.0262 0.01085,0.01 0.02545,0.0197 0.03797,0.0262 0.01836,0.006 0.02629,0.0197 0.03964,0.0262 0.01586,0.01 0.03172,0.0164 0.04745,0.0262 0.01252,0.01 0.0313,0.0197 0.04356,0.0328 0.01502,0.006 0.0242,0.0164 0.03839,0.0197 0.01461,0.01 0.03004,0.0197 0.04815,0.0328 0.01294,0.01 0.02921,0.0164 0.04453,0.0262 0.01794,0.01 0.03714,0.0197 0.05028,0.0328 0.01586,0.01 0.02921,0.0197 0.04919,0.0262 0.01669,0.01 0.03172,0.0197 0.05079,0.0262 0.02004,0.01 0.03964,0.0197 0.05988,0.0328 0.01669,0.01 0.03505,0.0197 0.05378,0.0328 0.01961,0.01 0.03964,0.0164 0.05662,0.0262 0.01669,0.01 0.03296,0.0164 0.0514,0.0262 0.01753,0.01 0.04047,0.0197 0.06034,0.0328 0.01502,0.01 0.03964,0.0164 0.05929,0.0197 0.02003,0.006 0.0363,0.0164 0.0525,0.0262 0.01961,0.006 0.03505,0.0164 0.05241,0.0262 0.02337,0.01 0.03922,0.0197 0.05821,0.0328 0.01502,0.006 0.02587,0.0164 0.0413,0.0262 0.01878,0.01 0.03714,0.0164 0.05433,0.0262 0.01794,0.006 0.03505,0.0164 0.04927,0.0262 0.01085,0.01 0.02211,0.0164 0.03213,0.0262 0.01753,0.01 0.03255,0.0197 0.04657,0.0328 0.01669,0.01 0.02712,0.0197 0.04089,0.0328 0.01502,0.01 0.02837,0.0197 0.04047,0.0328 0.01419,0.0164 0.02504,0.0328 0.03881,0.0415 0.01461,0.01 0.02295,0.0197 0.03505,0.0328 0.0121,0.01 0.02294,0.0262 0.03296,0.0363 0.0067,0.0164 0.02004,0.0262 0.03088,0.0415 0.01461,0.01 0.01961,0.0262 0.03338,0.0363 0.01543,0.01 0.02211,0.0262 0.03379,0.0415 0.01043,0.0164 0.02504,0.0328 0.03672,0.0468 0.0063,0.01 0.01294,0.0197 0.02253,0.0363 0.01085,0.0164 0.01502,0.0262 0.01753,0.0415 -8.26e-4,0.0164 0.0029,0.0262 0.01043,0.0364 0.0096,0.0164 0.01336,0.0328 0.01585,0.0468 0.0016,0.0164 0.0014,0.0363 0.0015,0.0531 -1.6e-5,0.0164 -1.62e-4,0.0328 -1.08e-4,0.0468 -2.5e-5,0.0164 -1.13e-4,0.0328 -3.3e-5,0.0468 0,0.0164 -8e-5,0.0328 0,0.0468 10e-5,0.0164 5.5e-4,0.0328 -0.0016,0.0468 -0.0096,0.0197 -0.01586,0.0468 -0.02253,0.0685 -0.0096,0.0164 -0.01961,0.0363 -0.0242,0.053 -0.0023,0.0164 -0.01628,0.0328 -0.02337,0.0468 -0.0023,0.0164 -0.01043,0.0328 -0.01961,0.0468 -0.0088,0.0164 -0.0088,0.0328 -0.02087,0.0468 -0.01085,0.01 -0.01336,0.0262 -0.02086,0.0364 -0.01251,0.01 -0.01502,0.0262 -0.02421,0.0363 -0.01419,0.01 -0.01711,0.0197 -0.02587,0.0328 -0.01502,0.01 -0.01794,0.0197 -0.02587,0.0328 -0.01669,0.006 -0.0121,0.0197 -0.02545,0.0262 -0.01669,0.006 -0.01669,0.0164 -0.02712,0.0262 -0.01294,0.0164 -0.02921,0.0262 -0.04006,0.0364 -0.01878,0.01 -0.02379,0.0262 -0.03714,0.0364 -0.01336,0.0164 -0.03004,0.0262 -0.04231,0.0415 -0.01126,0.0164 -0.03004,0.0262 -0.04469,0.0415 -0.01168,0.0164 -0.02796,0.0328 -0.04515,0.0468 -0.02087,0.0164 -0.03964,0.0328 -0.0638,0.0415 -0.01919,0.0164 -0.04319,0.0262 -0.06421,0.0363 -0.02128,0.01 -0.03922,0.0197 -0.06105,0.0328 -0.02045,0.01 -0.03922,0.0197 -0.0593,0.0262 -0.02837,0.01 -0.05378,0.0197 -0.08041,0.0328 -0.0032,5.9e-4 -0.0071,8.9e-4 -0.01001,0.003 -0.01377,0.006 -0.0242,0.0164 -0.03881,0.0164 -0.117835,0.0415 -0.236131,0.0796 -0.354176,0.11952 0.01168,5.9e-4 -0.05679,0.0164 -0.04047,0.01 0.104775,-0.0363 0.422575,-0.13817 0.316372,-0.10445 -0.379588,0.12148 -0.223447,0.10085 -0.378003,0.11984 -0.02587,0.003 -0.05203,-4.9e-4 -0.07799,-8.9e-4 -0.02504,-5.9e-4 -0.04966,-5.9e-4 -0.07448,-5.9e-4 -0.02211,-1.4e-4 -0.04427,3e-5 -0.06634,3e-5 -0.02587,9e-4 -0.04427,-5.9e-4 -0.06643,-0.01 -0.01878,-0.006 -0.03964,-0.006 -0.06026,-0.006 -0.02379,-0.003 -0.04548,-0.01 -0.07085,-0.0164 -0.02546,-0.004 -0.04957,-0.01 -0.07553,-0.0164 -0.02379,-0.006 -0.04277,-0.01 -0.06856,-0.0164 -0.02337,-0.01 -0.05124,-0.0164 -0.07677,-0.0197 -0.0146,-0.006 -0.03547,-0.004 -0.05132,-0.01 -0.0088,-0.003 -0.01628,-0.006 -0.02462,-0.01 -0.02504,-0.004 -0.04619,-0.01 -0.07023,-0.0164 -0.02629,-0.003 -0.0461,-0.01 -0.07031,-0.0197 -0.02086,-0.003 -0.03505,-0.01 -0.05466,-0.0164 -0.0217,-0.004 -0.03672,-0.0164 -0.06042,-0.0164 -0.02045,-0.006 -0.03755,-0.0164 -0.05804,-0.0262 -0.02379,-0.006 -0.04806,-0.0164 -0.07061,-0.0262 -0.02337,-0.006 -0.04089,-0.0197 -0.0636,-0.0262 -0.01794,-0.004 -0.03004,-0.01 -0.04619,-0.0197 -0.02004,-0.003 -0.03714,-0.0164 -0.05157,-0.0262 -0.01252,-0.01 -0.02587,-0.0197 -0.04131,-0.0328 -0.01336,-0.01 -0.0242,-0.0164 -0.03589,-0.0262 -0.01628,-0.01 -0.03213,-0.0262 -0.04698,-0.0363 -0.01711,-0.0164 -0.03505,-0.0328 -0.0522,-0.0468 -0.01085,-0.01 -0.02754,-0.0197 -0.04131,-0.0328 -0.01836,-0.006 -0.03004,-0.0197 -0.04131,-0.0328 -0.01669,-0.01 -0.02629,-0.0328 -0.0434,-0.0415 -0.01502,-0.0164 -0.02879,-0.0262 -0.04198,-0.0415 -0.01419,-0.01 -0.02587,-0.0262 -0.03839,-0.0364 -0.01378,-0.0164 -0.02796,-0.0328 -0.04047,-0.0468 -0.0121,-0.0164 -0.02545,-0.0328 -0.0363,-0.0468 -0.0075,-0.0164 -0.02004,-0.0262 -0.02754,-0.0415 -0.01126,-0.01 -0.02169,-0.0197 -0.02837,-0.0363 -0.01043,-0.01 -0.02004,-0.0262 -0.0267,-0.0415 -0.0063,-0.01 -0.0046,-0.0262 -0.0071,-0.0363 -0.0092,-0.01 -0.01669,-0.0262 -0.02128,-0.0415 5.8e-5,-0.01 -0.0088,-0.0197 -0.01669,-0.0363 -0.0092,-0.0164 -0.01168,-0.0328 -0.01294,-0.0468 -9.85e-4,-0.0164 -7.67e-4,-0.0328 -8.26e-4,-0.0468 7.1e-5,-0.0164 1.96e-4,-0.0328 1.42e-4,-0.0468 1.6e-5,-0.0164 10e-5,-0.0328 2.1e-5,-0.0468 -5.8e-4,-0.0164 0.01294,-0.0262 0.01961,-0.0415 0.005,-0.01 0.0055,-0.0262 0.0071,-0.0415 0.0063,-0.01 0.01628,-0.0197 0.02087,-0.0363 0.0046,-0.01 0.0042,-0.0197 0.0046,-0.0363 -0.0028,-0.0164 0.003,-0.0262 0.01253,-0.0415 0.0075,-0.0164 0.02169,-0.0328 0.03088,-0.0415 0.0067,-0.01 0.02462,-0.0164 0.02921,-0.0262 0.01628,-0.01 0.02253,-0.0197 0.03464,-0.0328 0.01669,-0.01 0.02629,-0.0197 0.04293,-0.0328 0.01168,-0.01 0.02629,-0.0164 0.04047,-0.0262 0.0092,-0.006 0.02837,-0.0197 0.03964,-0.0262 0.01753,-0.01 0.03547,-0.0197 0.05407,-0.0262 0.01336,-0.006 0.03379,-0.0164 0.04311,-0.0197 0.01502,-0.006 0.02504,-0.0164 0.03881,-0.0197 0.0088,-0.004 0.03379,-0.0164 0.03922,-0.0197 0.01543,-0.006 0.02421,-0.0164 0.04089,-0.0197 0.01127,-0.01 0.02545,-0.0197 0.04089,-0.0262 0.02004,-0.01 0.03464,-0.0197 0.05629,-0.0262 1.200796,-0.40703 -0.762665,0.2518 0.409339,-0.13949 0.100187,-0.0328 -0.396654,0.13753 -0.300641,0.1002 0.116794,-0.0415 0.233419,-0.0799 0.350338,-0.11951 0.01043,-0.004 0.02504,-0.01 0.03672,-0.01 0.0038,-5.2e-4 0.01461,-9e-4 0.01168,-5.2e-4 -0.104526,0.0363 -0.210637,0.0697 -0.315956,0.10444 1.121206,-0.406 -0.205879,0.0982 0.07315,-0.0328 0.02294,-0.0164 0.908645,-0.30516 0.09509,-0.0328 0.02962,-0.01 0.05996,-0.0197 0.0898,-0.0363 0.119588,-0.0468 0.05387,-0.0197 0.366569,-0.11722 0.005,-9e-4 0.01168,-4e-5 0.01711,-9e-4 0.0071,-8.9e-4 0.01794,-0.01 0.02545,-0.01 0.0092,-0.006 0.02504,8e-5 0.03547,-0.003 0.0032,-5.9e-4 0.0039,-0.003 0.0067,-0.004 0.0042,-9e-4 0.0092,-0.003 0.01419,-0.006 0.02211,-0.006 0.04707,-0.006 0.07102,-0.006 0.0038,7e-5 0.008,8.9e-4 0.01168,2.3e-4 0.0063,-9e-4 0.0088,-0.006 0.01502,-0.01 0.0096,-0.003 0.02295,-0.004 0.03379,-0.006 0.02294,-8.9e-4 0.04594,-8.9e-4 0.06898,-8.9e-4 0.02253,-9e-4 0.0509,0.004 0.06981,-0.004 0.01711,-0.01 0.03922,-0.01 0.06059,-0.01 0.02421,9e-4 0.04277,0.01 0.06752,0.0164 0.02337,0.003 0.04736,9e-4 0.07094,9e-4 0.03296,1e-4 0.04461,-0.004 0.06989,0.01 0,0 -0.329516,0.12344 -0.329516,0.12344 v 0 c -0.01711,-5.6e-4 -0.03798,0.004 -0.05662,8.9e-4 -0.02587,-5.9e-4 -0.05179,-8.9e-4 -0.07649,-0.006 -0.02045,-0.004 -0.03589,-0.01 -0.05725,-0.006 -0.02003,0.004 -0.03797,0.01 -0.05899,0.01 -0.02504,-5.9e-4 -0.04999,-5.6e-4 -0.07511,-1e-4 -0.02128,5.9e-4 -0.04293,8.9e-4 -0.06335,0.006 -0.02169,0.006 -0.04005,0.01 -0.06484,0.01 -0.02211,9e-4 -0.04198,0.006 -0.06079,0.0164 -0.01919,0.004 -0.04006,0.004 -0.05671,0.01 -0.01168,0.003 -0.01961,0.004 -0.03213,0.006 -0.15706,0.0164 0.411551,-0.14997 0.291253,-0.10314 -0.02962,0.01 -0.05979,0.0262 -0.09088,0.0363 -0.118254,0.0415 -0.236465,0.0808 -0.354719,0.12147 -0.0096,0.003 -0.01878,0.006 -0.02879,0.01 -0.005,8.9e-4 -0.02087,0.006 -0.01586,0.004 0.104359,-0.0363 0.209635,-0.0707 0.313576,-0.10643 0.003,-8.9e-4 -0.0067,6e-4 -0.01043,9e-4 -0.179843,0.10347 -0.761254,0.24492 -0.07189,0.0328 -0.118546,0.0415 -0.237174,0.0796 -0.355553,0.11887 -0.0092,0.003 -0.01878,0.006 -0.02837,0.01 -0.005,8.9e-4 -0.01961,0.006 -0.0146,0.006 0.10536,-0.0364 0.210678,-0.0717 0.315997,-0.10806 -0.127852,0.0468 -0.04728,0.0164 -0.366988,0.12574 -0.104316,0.0363 0.41539,-0.14342 0.312158,-0.10707 -0.117001,0.0415 -0.237299,0.0796 -0.353508,0.12147 -0.102064,0.0363 0.207632,-0.0707 0.311114,-0.10576 0.0039,-9e-4 -0.0083,0.003 -0.01252,0.003 -0.0121,0.006 -0.03505,0.01 -0.04453,0.0164 -0.0026,8.9e-4 -0.0016,0.006 -0.0042,0.006 -0.0018,9e-4 -0.005,9e-4 -0.008,0.003 -0.0058,0.003 -0.01336,0.003 -0.01836,0.006 -0.0026,8.9e-4 -0.0023,0.004 -0.005,0.006 -0.0075,0.006 -0.02045,9e-4 -0.02128,0.01 -0.0067,0.01 -0.01294,0.006 -0.02087,0.01 -0.0071,0.006 -0.0042,0.01 -0.01794,0.01 -0.01794,0.006 2.87e-4,-9e-4 -0.01126,0.01 -0.0071,0.006 -0.02754,0.004 -0.02587,0.0164 -0.0055,0.003 -0.01919,0.006 -0.02253,0.01 -0.0071,0.006 -0.0042,0.01 -0.01794,0.01 -0.01794,0.006 7.08e-4,-8.9e-4 -0.0121,0.01 -0.0075,0.006 -0.02921,0.006 -0.02879,0.0164 -0.0088,0.003 -0.02211,0.006 -0.02879,0.01 -0.0092,0.006 -0.0121,0.01 -0.02754,0.01 -0.01544,0.0164 0.0038,-6e-5 -0.01502,0.006 -0.01126,0.004 -0.0092,0.0164 -0.02629,0.0164 -0.005,0.004 -0.01168,0.01 -0.01836,0.0164 -0.0026,8.9e-4 -0.0067,2e-4 -0.0096,8.9e-4 -0.0063,0.003 -0.0063,0.01 -0.01294,0.01 -0.0267,0.0197 0.0096,-0.006 -0.01753,0.01 -0.01043,0.006 -0.01753,0.0164 -0.02462,0.0197 -0.02087,0.01 -0.02379,0.0164 -0.03505,0.0328 -0.0026,1.7e-4 -0.0058,-5.6e-4 -0.0075,4.7e-4 -0.005,0.003 -0.0014,0.01 -0.0046,0.01 -0.0039,0.004 -0.01711,0.006 -0.02045,0.01 -0.01252,0.01 -0.01294,0.0197 -0.02337,0.0262 -0.0019,9e-4 -0.0058,0.003 -0.0071,0.004 -0.0019,0.003 -0.0015,0.006 -0.0022,0.01 -0.0075,0.01 -0.02128,0.0197 -0.01878,0.0328 1.5e-4,0.01 -8.8e-5,0.0262 -0.0014,0.0363 -0.0035,0.01 -0.005,0.0262 -0.01919,0.0364 -0.01336,0.01 -0.0021,0.0262 -0.0088,0.0363 -0.0026,0.01 -0.0067,0.0262 -0.02295,0.0363 -7.9e-5,0.0164 4e-6,0.0328 -9e-6,0.0468 -9.6e-5,0.0164 -3.7e-5,0.0328 -1.13e-4,0.0468 -1.57e-4,0.0164 -2.29e-4,0.0328 6e-5,0.0468 5.21e-4,0.01 8.85e-4,0.0262 0.0067,0.0363 0.0083,0.01 0.02211,0.0262 0.02087,0.0363 0.0023,0.01 0.0096,0.0262 0.01836,0.0363 0.0088,0.0164 0.005,0.0262 0.0088,0.0415 0.0042,0.0164 0.01502,0.0262 0.02587,0.0363 0.0055,0.01 0.01753,0.0262 0.02837,0.0363 0.0063,0.0164 0.01878,0.0262 0.02628,0.0415 0.0092,0.0164 0.02294,0.0328 0.03463,0.0415 0.0121,0.0164 0.02587,0.0328 0.03922,0.0468 0.01294,0.0164 0.02462,0.0262 0.03881,0.0415 0.01252,0.0164 0.02545,0.0262 0.03922,0.0415 0.01628,0.0164 0.02796,0.0328 0.04469,0.0415 0.01168,0.01 0.02294,0.0197 0.04005,0.0328 0.01419,0.01 0.0313,0.0197 0.04198,0.0364 0.01753,0.0164 0.03505,0.0328 0.05195,0.0468 0.0146,0.01 0.02962,0.0262 0.04557,0.0363 0.01293,0.01 0.02086,0.0164 0.03464,0.0262 0.01377,0.01 0.02879,0.0197 0.04089,0.0328 0.01461,0.01 0.02879,0.0164 0.04786,0.0197 0.01502,0.006 0.02837,0.0164 0.0454,0.0197 0.02004,0.01 0.04131,0.0164 0.06272,0.0262 0.02379,0.01 0.04832,0.0164 0.07164,0.0262 0.01585,0.006 0.03255,0.0164 0.05179,0.0197 0.0217,0.006 0.04089,0.0164 0.0636,0.0197 0.01794,0.006 0.03422,0.01 0.05407,0.0164 0.02295,0.006 0.04515,0.0164 0.06968,0.0164 0.02337,0.006 0.04824,0.01 0.07147,0.0197 0.02462,0.006 0.05336,0.01 0.07657,0.0164 0.02379,0.006 0.04886,0.01 0.07252,0.0197 0.02337,0.006 0.04506,0.01 0.06943,0.0164 0.02462,0.006 0.04778,0.01 0.0736,0.0164 0.02253,0.004 0.04406,0.01 0.06831,0.01 0.02295,0.003 0.04569,0.006 0.06689,0.01 0.01836,0.003 0.03839,-8.9e-4 0.05716,3.7e-4 0.02211,0 0.04419,1.6e-4 0.06626,2.6e-4 0.02504,2e-4 0.05028,5.9e-4 0.07544,8.9e-4 0.02379,6e-4 0.04715,6e-4 0.0696,-0.006 0.0058,-9e-4 0.02253,-0.006 0.01753,-0.004 -0.103315,0.0363 -0.420885,0.1349 -0.311281,0.10641 0.134193,-0.0363 0.259415,-0.0877 0.39123,-0.12868 -0.104442,0.0364 -0.208843,0.0711 -0.313284,0.10642 0.01794,-0.006 0.03839,-0.01 0.0487,-0.0197 0.02921,-0.01 0.05433,-0.0197 0.08066,-0.0328 0.02421,-0.006 0.03922,-0.0164 0.06138,-0.0262 0.01251,-0.006 0.02921,-0.01 0.04089,-0.0164 0.0038,-0.003 0.005,-0.006 0.0088,-0.01 0.0035,-0.003 0.0083,-0.003 0.0121,-0.006 0.02462,-0.01 0.04406,-0.0262 0.06564,-0.0364 0.01961,-0.0164 0.0484,-0.0262 0.06405,-0.0415 0.02211,-0.01 0.04173,-0.0262 0.0487,-0.0415 0.01168,-0.0164 0.02796,-0.0262 0.04435,-0.0415 0.01502,-0.0164 0.02337,-0.0328 0.0419,-0.0415 0.002,-0.003 0.0039,-0.004 0.0063,-0.006 0.0026,-9e-4 0.0063,-9e-4 0.008,-0.003 0.0092,-0.01 0.0067,-0.0197 0.02128,-0.0328 0.01961,-0.01 0.02294,-0.0262 0.0413,-0.0364 0.0017,-9e-4 0.0032,-0.004 0.005,-0.006 0.0023,-3.6e-4 0.0058,9e-5 0.0071,-8.9e-4 0.0067,-0.006 -7.67e-4,-0.0164 0.01252,-0.0197 0.01252,-0.01 -0.0039,3.6e-4 0.01294,-0.003 0.0071,-9e-4 0.0075,-0.0197 0.01377,-0.0197 0.0042,-0.003 0.01085,-0.003 0.01336,-0.006 0.0058,-0.006 0.0035,-0.0164 0.01294,-0.0262 0.0042,-0.003 0.01085,-0.003 0.01336,-0.006 0.0058,-0.006 0.0038,-0.0164 0.01294,-0.0262 0.0046,-0.003 0.01085,-0.004 0.01336,-0.006 0.0063,-0.01 0.0039,-0.0197 0.01294,-0.0328 0.01419,-0.0164 0.01252,-0.0197 0.02128,-0.0364 0.0038,-0.006 0.01336,-0.01 0.01669,-0.0164 0.0039,-0.01 4.55e-4,-0.0164 0.0058,-0.0262 0.0075,-0.0164 0.0217,-0.0262 0.02128,-0.0415 0.0046,-0.0164 0.01168,-0.0328 0.02546,-0.0468 0.0023,-0.0197 0.0067,-0.0363 0.02211,-0.0559 0.01419,-0.0197 0.01001,-0.0468 0.02379,-0.0668 0.0088,-0.0164 0.0032,-0.0328 0.0046,-0.0468 7.9e-5,-0.0164 0,-0.0328 0,-0.0468 7.9e-5,-0.0164 0,-0.0328 1.7e-5,-0.0468 1.12e-4,-0.0164 7e-5,-0.0328 1.79e-4,-0.0468 1.83e-4,-0.0164 2.66e-4,-0.0364 -4.63e-4,-0.0521 -9.85e-4,-0.0164 -0.0026,-0.0328 -0.01085,-0.0415 -0.0083,-0.0164 -0.01836,-0.0262 -0.01502,-0.0415 -7.08e-4,-0.01 -0.0026,-0.0262 -0.0096,-0.0363 -0.01043,-0.01 -0.02003,-0.0197 -0.02421,-0.0364 -0.01043,-0.0164 -0.02545,-0.0328 -0.03464,-0.0468 -0.01085,-0.01 -0.01794,-0.0262 -0.0313,-0.0364 -0.01378,-0.01 -0.02253,-0.0262 -0.03714,-0.0363 -0.01043,-0.0164 -0.02504,-0.0262 -0.03089,-0.0415 -0.0092,-0.01 -0.02045,-0.0262 -0.03046,-0.0364 -0.0121,-0.01 -0.02128,-0.0262 -0.03589,-0.0363 -0.01336,-0.0164 -0.02379,-0.0328 -0.03797,-0.0415 -0.01168,-0.01 -0.02545,-0.0197 -0.03922,-0.0328 -0.01294,-0.01 -0.02587,-0.0197 -0.04089,-0.0328 -0.0146,-0.01 -0.03254,-0.0197 -0.04815,-0.0328 -0.0092,-0.01 -0.01878,-0.0164 -0.02879,-0.0262 -0.01461,-0.01 -0.03172,-0.0164 -0.04832,-0.0262 -0.01628,-0.01 -0.03547,-0.0164 -0.05249,-0.0262 -0.01543,-0.01 -0.02796,-0.0164 -0.04328,-0.0262 -0.01711,-0.01 -0.03547,-0.0197 -0.056,-0.0328 -0.01753,-0.01 -0.03672,-0.0164 -0.05441,-0.0262 -0.01377,-0.01 -0.0313,-0.01 -0.04707,-0.0197 -0.02379,-0.006 -0.04444,-0.0164 -0.06297,-0.0262 -0.02004,-0.01 -0.04047,-0.0197 -0.05891,-0.0328 -0.01836,-0.01 -0.03672,-0.0164 -0.05354,-0.0262 -0.01878,-0.01 -0.03714,-0.0164 -0.05592,-0.0262 -0.01878,-0.01 -0.03672,-0.0197 -0.05441,-0.0328 -0.01836,-0.01 -0.03922,-0.0197 -0.05779,-0.0328 -0.01669,-0.01 -0.03255,-0.0164 -0.04919,-0.0262 -0.02086,-0.01 -0.04089,-0.0197 -0.05779,-0.0328 -0.0121,-0.01 -0.03004,-0.0164 -0.04477,-0.0262 -0.01585,-0.01 -0.02962,-0.0164 -0.04469,-0.0262 -0.01711,-0.01 -0.03255,-0.0197 -0.04848,-0.0328 -0.01502,-0.01 -0.02879,-0.0164 -0.04302,-0.0262 -0.0121,-0.01 -0.02712,-0.0164 -0.03964,-0.0262 -0.01669,-0.01 -0.03379,-0.0197 -0.04936,-0.0328 -0.01377,-0.01 -0.02379,-0.0197 -0.04131,-0.0328 -0.0121,-0.01 -0.02754,-0.0164 -0.03755,-0.0262 -0.01294,-0.01 -0.02796,-0.0164 -0.04089,-0.0262 -0.01043,-0.01 -0.02546,-0.0197 -0.03213,-0.0328 -0.01419,-0.0164 -0.02796,-0.0262 -0.03798,-0.0415 -0.01126,-0.0164 -0.01669,-0.0328 -0.0313,-0.0415 -0.0046,-0.0164 -0.01628,-0.0328 -0.02504,-0.0468 -0.003,-0.0164 -0.0092,-0.0328 -0.01878,-0.0468 -0.0083,-0.0164 -0.0046,-0.0328 -0.0058,-0.0468 -0.0012,-0.0164 -0.003,-0.0328 -0.01085,-0.0415 -0.0096,-0.0164 -0.01878,-0.0328 -0.01502,-0.0521 7.7e-5,-0.0164 0,-0.0328 -8e-6,-0.0468 5.9e-5,-0.0164 -3.7e-5,-0.0328 -1.28e-4,-0.0468 -1.7e-5,-0.0164 -3.09e-4,-0.0262 1.6e-5,-0.0415 1.55e-4,-0.0164 3.59e-4,-0.0328 0.005,-0.0468 0.0046,-0.0164 0.01878,-0.0262 0.02087,-0.0363 1.3e-5,-0.0164 -2.17e-4,-0.0328 8.27e-4,-0.0468 0.0019,-0.0164 0.0038,-0.0328 0.01461,-0.0415 0.01669,-0.0164 0.0121,-0.0262 0.01836,-0.0415 0.0058,-0.0164 0.02128,-0.0262 0.02253,-0.0415 0.005,-0.0164 0.01961,-0.0197 0.02587,-0.0364 0.0046,-0.006 0.0083,-0.0164 0.01419,-0.0197 2.88e-4,-2.6e-4 0.01628,-0.01 0.01628,-0.01 0.0023,-0.003 0.0026,-0.006 0.0039,-0.01 0.0042,-0.004 0.0071,-0.01 0.01252,-0.0164 0.0021,-9e-4 0.0067,-9e-4 0.0083,-0.003 0.0063,-0.006 0.0067,-0.01 0.01836,-0.0164 0.0121,-0.006 0.01085,-0.0164 0.02253,-0.0262 0.002,-9e-4 0.0063,-5.9e-4 0.008,-9e-4 0.0023,-8.9e-4 0.0021,-0.004 0.0032,-0.006 0.0063,-0.01 0.02421,-0.0197 0.03547,-0.0328 0.0146,-0.0164 -0.0032,-4.6e-4 0.01502,-0.006 0.0083,-0.003 0.01043,-0.01 0.01794,-0.0164 0.0029,-8.9e-4 0.0067,-1.7e-4 0.0096,-2.7e-4 0.01711,-0.01 0.03379,-0.0197 0.05203,-0.0262 0.005,-0.003 0.02169,-0.006 0.02546,-0.01 0.0071,-0.006 0.0039,-0.01 0.01794,-0.01 0.01794,-0.006 -8.27e-4,8.9e-4 0.01168,-0.01 0.0075,-0.006 0.02921,-0.006 0.02921,-0.0164 0.02379,-0.01 0.04364,-0.0164 0.0658,-0.0262 0.138991,-0.0415 0.254115,-0.16994 0.418681,-0.14604 -0.10515,0.0363 -0.424652,0.1385 -0.315371,0.1074 0.136363,-0.0363 0.2716,-0.0995 0.416267,-0.13588 0.02629,-0.006 0.04974,-0.0164 0.07607,-0.0197 0.02379,-0.006 0.04857,-0.01 0.07269,-0.0197 0.02379,-9e-4 0.04381,-0.01 0.06556,-0.0164 0.02086,-0.003 0.03672,-0.01 0.05662,-0.0164 0.02337,9e-4 0.04577,-0.004 0.06697,-0.01 0.0242,-0.006 0.04911,-0.006 0.07281,-0.01 0.02504,-0.006 0.04778,-0.006 0.07498,-0.006 0.02587,0 0.05203,0 0.07811,0 0.02462,0 0.04936,0 0.07411,0 0.02337,-3e-5 0.04665,0 0.07006,0 0.02587,0 0.0522,0 0.07828,-3e-5 0.02587,0 0.0522,-6e-5 0.07828,-6e-5 0.02629,9e-5 0.053,1.6e-4 0.07924,9e-4 0.02796,0.003 0.05457,0.006 0.08082,0.01 0.02629,0.004 0.05449,5.8e-4 0.08128,0.004 0.03379,0.003 0.06677,0.01 0.09981,0.01 0.03046,9e-4 0.06079,0.003 0.09005,0.01 0.03088,0.006 0.06113,0.01 0.09259,0.0164 0.02337,0.004 0.04444,0.01 0.06856,0.0164 0.02295,0.006 0.04532,0.01 0.06943,0.0164 0.03672,0.01 0.07014,0.0197 0.107531,0.0328 0.102647,0.0328 0.199996,0.0648 0.303436,0.094 0,0 -0.323674,0.12507 -0.323674,0.12507 z"
       inkscape:connector-curvature="0" />
    <g
       id="g5102"
       transform="translate(0.06681738,-18.441597)">
      <g
         id="g4969">
        <g
           id="g4974">
          <path
             inkscape:connector-curvature="0"
             id="path4743"
             d="m 7.3238886,252.42454 v 9.1754"
             style="fill:none;stroke:#797784;stroke-width:0.44299999;stroke-linecap:butt;stroke-linejoin:miter;stroke-miterlimit:4;stroke-dasharray:none;stroke-dashoffset:0;stroke-opacity:0.99290783" />
          <path
             inkscape:connector-curvature="0"
             id="path4745"
             d="M 5.9821803,252.44633 H 8.4288249"
             style="fill:none;stroke:#797784;stroke-width:0.44299999;stroke-linecap:butt;stroke-linejoin:miter;stroke-miterlimit:4;stroke-dasharray:none;stroke-dashoffset:0;stroke-opacity:0.99290783" />
          <path
             inkscape:connector-curvature="0"
             id="path4747"
             d="M 6.061104,261.62173 H 8.4025171"
             style="fill:none;stroke:#797784;stroke-width:0.44299999;stroke-linecap:butt;stroke-linejoin:miter;stroke-miterlimit:4;stroke-dasharray:none;stroke-dashoffset:0;stroke-opacity:0.99290783" />
        </g>
      </g>
      <path
         inkscape:connector-curvature="0"
         d="m 5.7886554,255.58782 c -0.1606395,-0.0846 -0.3298715,-0.16261 -0.4988506,-0.24123 -0.056925,-0.0255 -0.1121098,-0.0518 -0.1717161,-0.0747 -0.04073,-0.003 -0.071626,-0.0226 -0.1081863,-0.0331 -0.037749,-0.002 -0.066062,-0.0198 -0.099343,-0.0294 -0.032782,-0.008 -0.061395,-0.0226 -0.097157,-0.0294 -0.036261,-0.008 -0.060549,-0.0226 -0.1016293,-0.0255 -0.047189,8e-5 -0.082305,-0.0198 -0.1252712,-0.0255 -0.042717,-0.003 -0.086329,-0.003 -0.1296426,-0.003 -0.056477,0.008 -0.096164,-0.008 -0.1462827,-0.0198 -0.038743,-0.008 -0.081066,-0.008 -0.1219943,-0.0113 -0.042222,3e-5 -0.08474,1.4e-4 -0.1271099,2.8e-4 -0.048678,8e-5 -0.097258,3e-5 -0.1458854,1.4e-4 -0.046196,0.003 -0.1038654,-0.008 -0.1428071,0.008 -0.036261,0.0198 -0.085238,0.0198 -0.1301914,0.0198 -0.030782,0.0198 -0.070932,0.0255 -0.1137498,0.0294 -0.00596,3.2e-4 -0.013909,-0.001 -0.018861,9.7e-4 -0.00546,0.002 -0.00353,0.008 -0.00795,0.0113 -0.015896,0.008 -0.049671,0.0141 -0.070784,0.0198 -0.4032866,0.13942 0.8608355,-0.29483 0.4160528,-0.13406 -0.038743,0.0113 -0.063779,0.0294 -0.09522,0.045 -0.033775,0.0198 -0.071131,0.0368 -0.1079876,0.0537 -0.031287,0.0141 -0.046196,0.0334 -0.071528,0.0487 -0.030309,0.0141 -0.062836,0.0294 -0.091247,0.045 -0.026809,0.0141 -0.045697,0.0368 -0.066312,0.056 -0.036261,0.0226 -0.050466,0.0489 -0.07272,0.075 -0.022835,0.0198 -0.038743,0.0331 -0.045697,0.0546 -0.00546,0.0294 -0.0293,0.0534 -0.041228,0.0809 -0.00546,0.0255 -0.015896,0.0464 -0.036756,0.0682 -0.018387,0.0226 -0.01886,0.0464 -0.031792,0.069 -0.020847,0.0226 -0.032287,0.0495 -0.037749,0.0755 -0.00495,0.0255 -0.00495,0.0554 -0.00495,0.0834 1.99e-5,0.0294 4.48e-5,0.0568 2.782e-4,0.0851 7.95e-5,0.0294 -6.47e-5,0.0568 9.43e-5,0.0851 0.00353,0.0226 -0.00744,0.0427 0.00694,0.0619 0.019365,0.0226 0.030309,0.0484 0.037749,0.0738 0.00356,0.0226 0.024822,0.0402 0.036261,0.0605 0.00744,0.0226 0.019365,0.0461 0.034274,0.0687 0.0164,0.0226 0.025831,0.0472 0.030782,0.0718 0.00246,0.0226 0.01987,0.0458 0.036756,0.0667 0.028322,0.0226 0.038743,0.0484 0.05737,0.0727 0.01886,0.0198 0.035267,0.0331 0.054986,0.0509 0.018388,0.0198 0.041228,0.0373 0.061048,0.0566 0.023339,0.0226 0.059805,0.0373 0.087919,0.0568 0.024348,0.0141 0.051759,0.0294 0.082207,0.0424 0.028322,0.0198 0.060401,0.0331 0.091843,0.0475 0.034772,0.0141 0.070285,0.0294 0.1090285,0.0407 0.030309,0.0198 0.076694,0.0255 0.1080854,0.0416 0.035267,0.0113 0.066658,0.0226 0.1019762,0.0331 0.047684,0.008 0.088963,0.0226 0.1352062,0.0331 0.049671,0.0113 0.091991,0.0294 0.1456866,0.0331 0.037254,0.0141 0.074805,0.0294 0.1196604,0.0334 0.00546,3.1e-4 0.011417,-5.4e-4 0.0164,9e-4 0.036756,0.0113 0.049176,0.0198 0.092341,0.0255 0.04371,0.003 0.086579,0.0198 0.1292956,0.0294 0.044209,-0.003 0.070484,0.0141 0.1083851,0.0226 0.034274,0.008 0.072272,0.008 0.108732,0.008 0.044209,0.002 0.078432,0.0226 0.1243786,0.0254 0.2794041,0.0557 -0.2113548,0.10379 -0.627079,0.237 -0.011417,0.003 -0.024348,-0.003 -0.036756,-0.008 -0.00993,-0.002 -0.01987,-0.002 -0.030309,-0.003 -0.044704,-0.003 -0.090701,-0.003 -0.1360513,-0.003 -0.047684,3.6e-4 -0.095719,5.6e-4 -0.1435515,5.6e-4 -0.042717,2.3e-4 -0.085238,9e-5 -0.1278543,1.7e-4 -0.047684,-6e-5 -0.094971,-1.1e-4 -0.1424601,-8e-5 -0.049176,0 -0.098649,-3e-5 -0.1479733,0 -0.049176,0 -0.098747,-3e-5 -0.148071,0 -0.051908,-0.003 -0.092391,0.0141 -0.1413153,0.0226 -0.050766,0.003 -0.1023736,0.008 -0.1538333,0.008 -0.049671,5e-5 -0.099295,-1.5e-4 -0.1489667,-2.3e-4 -0.00845,0 -0.017378,-10e-4 -0.025831,-3e-5 -0.00413,6.5e-4 -0.030309,0.0141 -0.034769,0.0141 -0.01987,0.008 -0.044209,0.008 -0.066113,0.0113 -0.023844,0.008 -0.057818,-10e-4 -0.081611,0.003 -0.013404,0.003 -0.022835,0.0113 -0.035267,0.0141 -0.024821,0.0113 -0.064375,0.003 -0.089408,0.0113 -0.015896,0.003 -0.026335,0.0141 -0.04073,0.0198 -0.014887,0.0113 -0.048183,0.008 -0.065965,0.0113 -0.00596,0.002 -0.00694,0.008 -0.012426,0.008 -0.011922,0.003 -0.027313,0.008 -0.04073,0.0113 -0.2226301,0.0585 -0.096463,0.0254 0.5789717,-0.1909 0.01044,-0.003 -0.017883,0.008 -0.027818,0.0141 -0.021352,0.008 -0.041228,0.0141 -0.060401,0.0255 -0.030782,0.0141 -0.076842,0.0254 -0.1030202,0.0427 -0.031287,0.0113 -0.050766,0.0255 -0.077836,0.0416 -0.017883,0.008 -0.062785,0.0294 -0.074259,0.0416 -0.027818,0.0141 -0.047189,0.0294 -0.073515,0.0433 -0.036261,0.0113 -0.054093,0.0371 -0.083945,0.0529 -0.023844,0.0226 -0.054639,0.0368 -0.082504,0.0546 -0.033776,0.0198 -0.051163,0.0413 -0.084046,0.0582 -0.020847,0.0226 -0.054986,0.0385 -0.073465,0.0619 -0.030782,0.0226 -0.044704,0.0464 -0.066113,0.0698 -0.022835,0.0141 -0.039737,0.0255 -0.046196,0.0475 -0.021857,0.0198 -0.038248,0.0387 -0.048678,0.0619 -0.021352,0.0254 -0.038248,0.0523 -0.048183,0.0803 -0.019365,0.0226 -0.035763,0.0424 -0.047684,0.0653 -0.00943,0.0254 -0.00473,0.0518 -0.015896,0.0766 -0.019365,0.0226 -0.031287,0.0444 -0.036756,0.0682 -0.00495,0.0255 -0.00495,0.0546 -0.00495,0.082 -1.01e-5,0.0294 1.49e-5,0.0568 2.432e-4,0.0848 7.48e-5,0.0294 -6.43e-5,0.0568 9.46e-5,0.0851 9.8e-6,0.0294 -1.441e-4,0.0568 4.8e-6,0.0851 0.00194,0.0254 -0.00353,0.0537 0.00168,0.0803 0.017378,0.0198 0.025326,0.039 0.040235,0.058 0.020848,0.0226 0.039737,0.0424 0.06358,0.0625 0.0129,0.0226 0.041228,0.0368 0.061738,0.0566 0.022835,0.0141 0.048183,0.0294 0.070932,0.045 0.030309,0.0113 0.047684,0.0379 0.080517,0.0455 0.033775,0.0198 0.067207,0.0334 0.1041619,0.0501 0.030782,0.0226 0.080318,0.0294 0.1141946,0.0469 0.040235,0.0113 0.077539,0.0255 0.1186164,0.0379 0.038248,0.0141 0.074758,0.0255 0.1179225,0.0368 0.034772,0.0198 0.082406,0.0226 0.1207043,0.037 0.018387,0.0141 0.054043,0.0113 0.076149,0.0198 0.024348,0.0141 0.011922,0.008 0.035267,0.0198 0.031287,0.0113 0.051709,0.0254 0.081113,0.0399 0.00385,5e-5 0.00795,-8.2e-4 0.011417,2.5e-4 0.014413,0.003 0.021352,0.0141 0.034769,0.0198 0.011922,0.003 0.029805,0.008 0.043215,0.0113 0.00473,3e-5 0.00993,-0.001 0.014413,6e-5 0.013404,0.003 0.025831,0.0141 0.038743,0.0198 0.0129,0.003 0.030782,0.008 0.045202,0.0113 0.028796,0.003 0.082107,0.0226 0.1043606,0.0368 0.0293,0.0141 0.056427,0.0226 0.094028,0.0226 0.033775,0.0113 0.069393,0.0254 0.1108167,0.0254 0.046691,-0.003 0.077341,0.0113 0.1176734,0.0226 0.039241,0.008 0.079722,0.008 0.120206,0.008 0.04371,1.4e-4 0.08767,-1.7e-4 0.1314813,-2e-4 0.041723,0.0141 0.084046,0.0226 0.1314308,0.0255 0.046196,0.002 0.092142,0.002 0.1382371,0.002 0.049176,-1.4e-4 0.09845,-1.4e-4 0.1476736,-2.6e-4 0.042717,-1.4e-4 0.085286,-1.4e-4 0.1279552,-5e-5 0.048183,3e-5 0.096214,-6e-5 0.1443463,3e-5 0.049176,0 0.098747,-9e-5 0.1481214,0 0.049176,0 0.098699,-9e-5 0.1480711,0 0.049176,0 0.098699,-9e-5 0.1480237,0 0.047684,-3e-5 0.094874,2e-5 0.1423088,-9e-5 0.045697,0.002 0.079028,-0.0141 0.1230887,-0.0226 -1.2759889,0.41615 -0.2327637,0.0701 0.1693821,-0.0577 -0.011417,-0.003 0.072919,-0.0141 0.053548,-0.008 -0.1997199,0.0656 -0.401588,0.12953 -0.6027347,0.19372 -0.00795,0.002 0.014887,-0.003 0.022835,-0.008 0.2242197,-0.0735 0.4488856,-0.1465 0.6733087,-0.21946 0.025326,-0.003 0.045202,-0.0198 0.069491,-0.0226 0.00596,-9.9e-4 0.025326,-0.003 0.01987,-7e-4 -0.1971967,0.0662 -0.7927704,0.2599 -0.5960691,0.19344 0.2221318,-0.0749 0.4482895,-0.14621 0.6724294,-0.21918 -1.5113495,0.40733 -0.6405053,0.25312 -0.5131266,0.15866 0.2364885,-0.0984 0.504752,-0.17676 0.7635826,-0.25906 0.3279344,-0.0899 -0.8240136,0.29888 -0.4811226,0.15612 0.018387,-0.0113 0.03775,-0.0226 0.062785,-0.0331 0.00325,-0.0226 0.028322,-0.0331 0.046196,-0.0475 0.00647,-0.008 0.00356,-0.003 0.00893,-0.008 0,0 0.672091,-0.17704 0.672091,-0.17704 v 0 c -0.00442,0.008 -0.00196,0.003 -0.00744,0.0113 -0.00596,0.008 -0.010913,0.0226 -0.01987,0.0294 -0.00546,0.003 -0.020848,7.9e-4 -0.025831,0.003 -0.00385,0.003 -0.00188,0.008 -0.00281,0.0113 -0.00188,0.0113 -0.011922,0.0334 -0.027818,0.0396 -0.036261,0.0141 0.00413,-0.0198 -0.023844,0.008 -0.019365,0.0141 -0.03328,0.0226 -0.062088,0.0334 -0.235987,0.0792 -0.4729221,0.16318 -0.712967,0.24067 -0.2919725,0.0888 0.812321,-0.2915 0.4977382,-0.16262 -0.032287,0.003 -0.00234,-0.002 -0.027313,0.0113 -0.2000794,0.11143 -0.6043939,0.10153 -0.7223896,0.24916 1.2574761,-0.41864 0.2645522,-0.0812 -0.1655565,0.0481 1.2360922,-0.41234 0.2719041,-0.0894 -0.1466328,0.0435 -1.48e-5,6e-5 -0.060947,0.0198 -0.054837,0.0141 0.1967993,-0.0659 0.3945944,-0.13179 0.591946,-0.1974 0.015896,-0.003 -0.030782,0.0113 -0.046196,0.0141 -0.2224314,0.0727 -0.4451107,0.14536 -0.6676314,0.21833 -0.046196,0.0113 -0.087572,0.0141 -0.13754,0.0113 -0.047189,-1.4e-4 -0.094624,-3e-5 -0.1419114,-6e-5 -0.049176,3e-5 -0.098699,0 -0.1480237,0 -0.049176,3e-5 -0.098699,0 -0.148071,0 -0.049176,3e-5 -0.098747,0 -0.1480711,0 -0.048183,3e-5 -0.096315,0 -0.1444471,3e-5 -0.042717,9e-5 -0.085286,9e-5 -0.1279048,1.2e-4 -0.049671,0 -0.098898,2.2e-4 -0.1483201,-2.3e-4 -0.049176,-7.6e-4 -0.099046,-0.002 -0.1470776,-0.008 -0.040235,-0.008 -0.079624,-0.0226 -0.1218965,-0.0198 -0.045202,3e-5 -0.090105,2.2e-4 -0.1349096,-0.002 -0.046691,-0.003 -0.092937,-0.008 -0.1352566,-0.0226 -0.036261,-0.008 -0.071579,-0.008 -0.1102711,-0.0141 -0.036261,-0.008 -0.070188,-0.0226 -0.108035,-0.0255 -0.043215,-0.008 -0.080668,-0.0226 -0.1151407,-0.0387 -0.031789,-0.008 -0.058761,-0.0226 -0.093136,-0.0254 -0.033775,-0.0113 -0.063432,-0.0226 -0.099295,-0.0294 -0.034772,-0.0113 -0.064675,-0.0254 -0.098154,-0.0373 -0.026335,-0.0141 -0.048678,-0.0294 -0.078681,-0.0379 -0.032287,-0.0141 -0.074111,-0.0198 -0.1067955,-0.0331 -0.04073,-0.0113 -0.077934,-0.0226 -0.1168281,-0.0331 -0.042222,-0.0113 -0.079873,-0.0255 -0.1213004,-0.0399 -0.042717,-0.0141 -0.08638,-0.0254 -0.1254226,-0.0435 -0.042717,-0.0113 -0.076991,-0.0294 -0.1139486,-0.0469 -0.035267,-0.0198 -0.069541,-0.0331 -0.1046098,-0.05 -0.029805,-0.0198 -0.056228,-0.0334 -0.08633,-0.0509 -0.029805,-0.0141 -0.051857,-0.0368 -0.079126,-0.0523 -0.01987,-0.0198 -0.049176,-0.0331 -0.059754,-0.0549 -0.025326,-0.0226 -0.046691,-0.0447 -0.068696,-0.0676 -0.018387,-0.0226 -0.025326,-0.045 -0.047189,-0.0662 -0.015896,-0.0294 -0.00893,-0.0594 -0.00993,-0.0897 1.492e-4,-0.0294 0,-0.0568 0,-0.0851 1.442e-4,-0.0294 -9.8e-6,-0.0568 -4.44e-5,-0.0851 7.94e-5,-0.0294 -1.641e-4,-0.0568 -3.23e-4,-0.0851 5.46e-5,-0.0294 -3.428e-4,-0.0571 0.00169,-0.0857 0.00353,-0.0255 0.00694,-0.0546 0.026809,-0.08 0.030782,-0.0226 0.018861,-0.039 0.023339,-0.0676 0.00385,-0.0254 0.015896,-0.0523 0.039241,-0.0755 0.035267,-0.0198 0.014887,-0.0577 0.050318,-0.0783 0.022361,-0.0198 0.011922,-0.0489 0.045202,-0.0656 0.028796,-0.0113 0.00744,-0.0427 0.041724,-0.0537 0.00893,-0.003 0.022361,-0.008 0.027818,-0.0141 0.014887,-0.0198 0.017378,-0.0379 0.039736,-0.0534 0.023844,-0.0141 0.022834,-0.0331 0.047189,-0.0461 0.00442,-0.002 0.0129,-0.002 0.016874,-0.003 0.00498,-0.003 0.00596,-0.008 0.00893,-0.0113 0.011922,-0.0141 0.027818,-0.0141 0.042717,-0.0294 0.0129,-0.0113 0.015896,-0.0255 0.038743,-0.0331 0.011922,-0.008 0.026809,-0.0254 0.04073,-0.0294 0.00498,-0.002 0.0129,-3.9e-4 0.017883,-0.002 0.011922,-0.003 0.011417,-0.0198 0.024348,-0.0226 0.048678,-0.0421 -0.017883,0.0113 0.03328,-0.0198 0.015896,-0.008 0.034769,-0.0331 0.044704,-0.0421 0.00993,-0.003 0.036261,-0.0113 0.043215,-0.0141 0.0129,-0.0113 0.00744,-0.0198 0.033775,-0.0226 0.03328,-0.0113 -4.722e-4,0.003 0.021857,-0.0198 0.013404,-0.0113 0.052056,-0.008 0.049176,-0.0294 0.01044,-0.003 0.036261,-0.0113 0.043215,-0.0141 0.013404,-0.0113 0.00893,-0.0198 0.036261,-0.0254 0.04371,-0.0141 -0.00993,0.008 0.026335,-0.0198 0.018387,-0.0141 0.063183,-0.0113 0.072572,-0.0294 0.028322,-0.003 0.036261,-0.0198 0.061246,-0.0255 0.00993,-0.003 0.021857,-0.003 0.031789,-0.008 0.2222831,-0.0752 0.443223,-0.15215 0.6651873,-0.22766 0.00546,-0.002 0.010913,-0.003 0.016401,-0.003 0.038743,-0.0113 0.078631,-0.0198 0.1153395,-0.0331 0.04371,-0.0113 0.093136,-0.0141 0.1363005,-0.0294 0.040235,-0.008 0.083649,-0.003 0.12289,-0.0141 0.046196,-0.0113 0.086828,-0.0226 0.138338,-0.0141 0.049176,8e-5 0.098103,2e-4 0.1470775,-10e-4 0.048183,-0.002 0.096662,-0.003 0.1421606,-0.0141 0.051658,-0.0113 0.099791,-0.0141 0.1547289,-0.0113 0.049176,6e-5 0.09875,0 0.1481215,0 0.049176,6e-5 0.098649,0 0.1480237,0 0.047684,6e-5 0.095072,0 0.1426084,-6e-5 0.042717,6e-5 0.084939,-1.4e-4 0.1274096,-1.4e-4 0.048183,-2.2e-4 0.096164,-5.1e-4 0.1442485,-1.4e-4 0.049176,8.5e-4 0.098501,0.003 0.145838,0.0113 0.00184,3.4e-4 0.068002,0.0113 0.067355,0.0113 -0.4794835,0.22936 -0.3403524,0.28111 -0.5896512,0.24208 -0.039241,-0.008 -0.073465,-0.0226 -0.1166294,-0.0198 -0.042717,-0.003 -0.084791,-0.008 -0.1233347,-0.0226 -0.034769,-0.0113 -0.071976,-0.0113 -0.1075398,-0.0198 -0.04073,-0.0113 -0.081113,-0.0226 -0.1249748,-0.0255 -0.036756,-0.008 -0.068447,-0.0226 -0.1071423,-0.0254 -0.04073,-0.0113 -0.078284,-0.0226 -0.1199569,-0.0331 -0.05156,-0.0113 -0.098747,-0.0254 -0.1503576,-0.0387 -0.046691,-0.0141 -0.095719,-0.0226 -0.1402745,-0.0368 -0.035762,-0.0113 -0.075253,-0.0226 -0.1076376,-0.0376 -0.038248,-0.008 -0.067406,-0.0254 -0.1029697,-0.0373 -0.040235,-0.0141 -0.079873,-0.0294 -0.1160333,-0.0472 -0.030309,-0.0141 -0.059307,-0.0294 -0.089957,-0.0455 -0.031789,-0.0141 -0.063728,-0.0294 -0.089509,-0.0495 -0.034772,-0.0198 -0.066312,-0.0402 -0.094675,-0.0634 -0.01987,-0.0198 -0.04073,-0.037 -0.058761,-0.0543 -0.023339,-0.0198 -0.040235,-0.0379 -0.061145,-0.0577 -0.01987,-0.0226 -0.027313,-0.0509 -0.056626,-0.0727 -0.021352,-0.0255 -0.042222,-0.0535 -0.050217,-0.0809 -0.0012,-0.0226 -0.00694,-0.0421 -0.020374,-0.0616 -0.014887,-0.0226 -0.034274,-0.0453 -0.036756,-0.0707 -0.011417,-0.0226 -0.035762,-0.0438 -0.042222,-0.0673 -0.00254,-0.0226 -0.01044,-0.0427 -0.026809,-0.0622 -0.021352,-0.0255 -0.025326,-0.0498 -0.021352,-0.0783 1.438e-4,-0.0294 -1.01e-5,-0.0568 -4.98e-5,-0.0851 8.45e-5,-0.0294 -1.641e-4,-0.0568 -3.328e-4,-0.0851 3.47e-5,-0.0294 -3.974e-4,-0.058 0.00168,-0.0871 0.00385,-0.0294 0.00845,-0.0597 0.027818,-0.0879 0.026809,-0.0255 0.022361,-0.0373 0.033775,-0.0665 0.011922,-0.0294 0.042222,-0.0331 0.040235,-0.0639 0.00943,-0.0255 0.0164,-0.0546 0.045697,-0.0761 0.00166,-0.0254 0.00201,-0.0532 0.031287,-0.0718 0.039737,-0.0255 0.034274,-0.0498 0.071279,-0.0767 0.027818,-0.0198 0.052999,-0.0373 0.062337,-0.0605 0.026809,-0.0198 0.049176,-0.041 0.088764,-0.0481 0.032287,-0.0142 0.055831,-0.0255 0.072818,-0.0484 0.032782,-0.0226 0.071825,-0.0331 0.1069437,-0.0554 0.016874,-0.008 0.048678,-0.0198 0.06189,-0.0294 0.00495,-0.003 0.00442,-0.0113 0.00993,-0.0141 0.00495,-0.003 0.013404,-0.003 0.01987,-0.008 0.2733454,-0.10379 0.5554919,-0.20306 0.8534393,-0.28112 0.031789,-0.0141 0.063183,-0.0226 0.1018784,-0.0255 0.037254,-0.0113 0.075303,-0.0254 0.1182695,-0.0254 0.043215,-0.008 0.082305,-0.0198 0.1255708,-0.0226 0.051163,0.001 0.1023737,6e-4 0.1535841,7.1e-4 0.048678,3e-5 0.097308,-1.1e-4 0.1459359,-2e-4 0.04371,9e-5 0.087471,-1.7e-4 0.1309356,0.002 0.046196,0.003 0.091247,0.008 0.1337175,0.0198 0.043215,0.0113 0.086629,0.008 0.1324748,0.008 0.049176,0.002 0.098898,0.003 0.1444472,0.0198 0.040235,0.0113 0.078432,0.0198 0.1219438,0.0226 0.036756,0.0113 0.068995,0.0226 0.1074893,0.0294 0.034274,0.0113 0.063927,0.0255 0.099939,0.0331 0.032785,0.0113 0.064176,0.0198 0.099245,0.0294 0.037254,0.0113 0.07436,0.0255 0.1121099,0.0368 0.058117,0.0255 0.1160333,0.0506 0.17112,0.0778 0.168089,0.0795 0.331461,0.16149 0.4979615,0.24209 0,0 -0.6213865,0.22314 -0.6213865,0.22314 z"
         id="path4753"
         style="fill:#800000;stroke:#b5aceb;stroke-width:0;stroke-miterlimit:4;stroke-dasharray:none;stroke-dashoffset:0;stroke-opacity:0.99290783" />
    </g>
    <g
       transform="matrix(0,0.40056614,-0.43303546,0,125.87193,274.62453)"
       id="g4969-7-4"
       inkscape:transform-center-x="5.1306454"
       inkscape:transform-center-y="1.4572666">
      <g
         id="g4974-5-3">
        <path
           style="fill:none;stroke:#797784;stroke-width:0.44299999;stroke-linecap:butt;stroke-linejoin:miter;stroke-miterlimit:4;stroke-dasharray:none;stroke-dashoffset:0;stroke-opacity:0.99290783"
           d="m 7.3238886,252.42454 v 9.1754"
           id="path4743-3-3"
           inkscape:connector-curvature="0" />
        <path
           style="fill:none;stroke:#797784;stroke-width:0.44299999;stroke-linecap:butt;stroke-linejoin:miter;stroke-miterlimit:4;stroke-dasharray:none;stroke-dashoffset:0;stroke-opacity:0.99290783"
           d="M 5.9821803,252.44633 H 8.4288249"
           id="path4745-8-3"
           inkscape:connector-curvature="0" />
        <path
           style="fill:none;stroke:#797784;stroke-width:0.44299999;stroke-linecap:butt;stroke-linejoin:miter;stroke-miterlimit:4;stroke-dasharray:none;stroke-dashoffset:0;stroke-opacity:0.99290783"
           d="M 6.061104,261.62173 H 8.4025171"
           id="path4747-8-8"
           inkscape:connector-curvature="0" />
      </g>
    </g>
  </g>
</svg>
